<svg xmlns="http://www.w3.org/2000/svg" width="1200" height="650" viewBox="0 0 1200 650" role="img" aria-label="Developer toolbelt command center">
  <defs>
    <linearGradient id="sc_bg" x1="0" y1="0" x2="1" y2="1">
      <stop offset="0" stop-color="#020617"/>
      <stop offset="0.55" stop-color="#07111f"/>
      <stop offset="1" stop-color="#0f172a"/>
      <animate attributeName="x1" values="0;0.1;0" dur="18s" repeatCount="indefinite"/>
      <animate attributeName="y2" values="1;0.8;1" dur="22s" repeatCount="indefinite"/>
    </linearGradient>
    <radialGradient id="sc_glow" cx="50%" cy="45%" r="75%">
      <stop offset="0" stop-color="#22d3ee" stop-opacity="0.24"/>
      <stop offset="0.45" stop-color="#8b5cf6" stop-opacity="0.16"/>
      <stop offset="1" stop-color="#020617" stop-opacity="0"/>
    </radialGradient>
    <linearGradient id="sc_nodeStroke" x1="0" y1="0" x2="1" y2="1">
      <stop offset="0" stop-color="#38bdf8"/>
      <stop offset="0.55" stop-color="#22d3ee"/>
      <stop offset="1" stop-color="#a855f7"/>
    </linearGradient>
    <linearGradient id="sc_pathStroke" x1="0" y1="0" x2="1" y2="0">
      <stop offset="0" stop-color="#60a5fa" stop-opacity="0.3"/>
      <stop offset="0.5" stop-color="#22d3ee" stop-opacity="0.85"/>
      <stop offset="1" stop-color="#d946ef" stop-opacity="0.35"/>
    </linearGradient>
    <linearGradient id="sc_sweep" x1="0" y1="0" x2="1" y2="0">
      <stop offset="0" stop-color="#ffffff" stop-opacity="0"/>
      <stop offset="0.45" stop-color="#67e8f9" stop-opacity="0.24"/>
      <stop offset="0.55" stop-color="#a78bfa" stop-opacity="0.28"/>
      <stop offset="1" stop-color="#ffffff" stop-opacity="0"/>
    </linearGradient>
    <pattern id="sc_grid" width="26" height="26" patternUnits="userSpaceOnUse">
      <path d="M 26 0 L 0 0 0 26" fill="none" stroke="#38bdf8" stroke-opacity="0.09" stroke-width="1"/>
    </pattern>

    <filter id="sc_blur" x="-60%" y="-60%" width="220%" height="220%">
      <feGaussianBlur stdDeviation="7"/>
    </filter>
    <filter id="sc_softGlow" x="-40%" y="-40%" width="180%" height="180%">
      <feGaussianBlur stdDeviation="3" result="b"/>
      <feMerge>
        <feMergeNode in="b"/>
        <feMergeNode in="SourceGraphic"/>
      </feMerge>
    </filter>

    <symbol id="sc_icon_html" viewBox="0 0 44 44">
      <path d="M8 4h28l-3 31-11 4-11-4z" fill="#e34f26"/>
      <path d="M22 7h11l-2.5 25.5-8.5 3V7z" fill="#f16529"/>
      <path d="M22 13h-8l0.6 5h7.4v5h-7l1 10 6 2v-5l-2.8-1-0.2-2h3z" fill="#fff"/>
    </symbol>
    <symbol id="sc_icon_css" viewBox="0 0 44 44">
      <path d="M8 4h28l-3 31-11 4-11-4z" fill="#1572b6"/>
      <path d="M22 7h11l-2.5 25.5-8.5 3V7z" fill="#33a9dc"/>
      <path d="M22 13h-8l0.6 5h7.4v5h-6.7l0.4 5h6.3v5l-6-2-0.4-4h-5l0.8 8 10.6 4 10.5-4 1.4-15H22z" fill="#fff"/>
    </symbol>
    <symbol id="sc_icon_js" viewBox="0 0 44 44">
      <rect x="4" y="4" width="36" height="36" rx="5" fill="#f7df1e"/>
      <text x="12" y="30" font-family="Segoe UI, Arial, sans-serif" font-size="14" font-weight="700" fill="#111827">JS</text>
    </symbol>
    <symbol id="sc_icon_react" viewBox="0 0 44 44">
      <ellipse cx="22" cy="22" rx="16" ry="6" fill="none" stroke="#61dafb" stroke-width="2"/>
      <ellipse cx="22" cy="22" rx="16" ry="6" fill="none" stroke="#61dafb" stroke-width="2" transform="rotate(60 22 22)"/>
      <ellipse cx="22" cy="22" rx="16" ry="6" fill="none" stroke="#61dafb" stroke-width="2" transform="rotate(120 22 22)"/>
      <circle cx="22" cy="22" r="3.2" fill="#61dafb"/>
    </symbol>
    <symbol id="sc_icon_java" viewBox="0 0 44 44">
      <path d="M14 31h16" stroke="#cbd5e1" stroke-width="2" stroke-linecap="round"/>
      <path d="M16 28h12c0 3-2.5 5-6 5s-6-2-6-5z" fill="#9ca3af"/>
      <path d="M22 11c3 2 0 3 0 5s3 2 3 5" fill="none" stroke="#f97316" stroke-width="2" stroke-linecap="round"/>
      <path d="M18 14c2 1.5 0 2.5 0 4s2.5 1.8 2.5 4" fill="none" stroke="#38bdf8" stroke-width="1.8" stroke-linecap="round"/>
    </symbol>
    <symbol id="sc_icon_node" viewBox="0 0 44 44">
      <path d="M22 4l15 9v18l-15 9-15-9V13z" fill="#5fa04e"/>
      <text x="17" y="28" font-family="Segoe UI, Arial, sans-serif" font-size="15" font-weight="700" fill="#ecfdf5">n</text>
    </symbol>
    <symbol id="sc_icon_express" viewBox="0 0 44 44">
      <rect x="5" y="9" width="34" height="26" rx="6" fill="#111827" stroke="#e5e7eb" stroke-opacity="0.35"/>
      <text x="11" y="27" font-family="Segoe UI, Arial, sans-serif" font-size="12" font-weight="700" fill="#f9fafb">ex</text>
    </symbol>
    <symbol id="sc_icon_mongo" viewBox="0 0 44 44">
      <path d="M22 6c4 5 6 11 6 17 0 8-4 13-6 15-2-2-6-7-6-15 0-6 2-12 6-17z" fill="#47a248"/>
      <path d="M22 11v21" stroke="#b7f7c4" stroke-width="1.8" stroke-linecap="round"/>
    </symbol>
    <symbol id="sc_icon_python" viewBox="0 0 44 44">
      <path d="M22 6h-8c-4 0-6 2.4-6 6v6h14c2.2 0 4-1.8 4-4v-8c0-0.8-0.2-1.5-0.4-2z" fill="#3776ab"/>
      <circle cx="16" cy="12" r="1.3" fill="#fff"/>
      <path d="M22 38h8c4 0 6-2.4 6-6v-6H22c-2.2 0-4 1.8-4 4v8c0 0.8 0.2 1.5 0.4 2z" fill="#ffd343"/>
      <circle cx="28" cy="32" r="1.3" fill="#111827"/>
    </symbol>
    <symbol id="sc_icon_git" viewBox="0 0 44 44">
      <rect x="10" y="10" width="24" height="24" transform="rotate(45 22 22)" rx="4" fill="#f05032"/>
      <circle cx="17" cy="17" r="2.2" fill="#fff"/>
      <circle cx="27" cy="22" r="2.2" fill="#fff"/>
      <circle cx="17" cy="27" r="2.2" fill="#fff"/>
      <path d="M17 17v10h10" stroke="#fff" stroke-width="1.8" fill="none"/>
    </symbol>
    <symbol id="sc_icon_github" viewBox="0 0 44 44">
      <circle cx="22" cy="22" r="16" fill="#0f172a" stroke="#f8fafc" stroke-opacity="0.8"/>
      <path d="M22 12c-5.7 0-10.3 4.7-10.3 10.4 0 4.6 3 8.5 7.2 9.8.5.1.7-.2.7-.5v-2c-3 .7-3.6-1.2-3.6-1.2-.5-1.2-1.2-1.5-1.2-1.5-1-.7.1-.7.1-.7 1.1.1 1.7 1.2 1.7 1.2 1 .1.7 2.6 3 1.9.1-.7.4-1.2.7-1.5-2.4-.3-4.9-1.2-4.9-5.3 0-1.2.4-2.2 1.2-3-.1-.3-.5-1.5.1-3 0 0 1-.3 3.3 1.2 1-.3 2-.4 3-.4s2.1.1 3 .4c2.3-1.5 3.3-1.2 3.3-1.2.6 1.5.2 2.7.1 3 .8.8 1.2 1.8 1.2 3 0 4.1-2.5 5-4.9 5.3.4.3.8 1 .8 2.1v3.1c0 .3.2.7.7.5 4.2-1.3 7.2-5.2 7.2-9.8C32.3 16.7 27.7 12 22 12z" fill="#f8fafc"/>
    </symbol>
    <symbol id="sc_icon_vscode" viewBox="0 0 44 44">
      <path d="M32 7l6 3v24l-6 3-16-15z" fill="#007acc"/>
      <path d="M12 16l8-8 8 5-8 9z" fill="#1f9cf0"/>
      <path d="M12 28l8 8 8-5-8-9z" fill="#29b2ff"/>
      <path d="M8 22l8-6v12z" fill="#60c9ff"/>
    </symbol>

    <path id="sc_p1" d="M600 305 L310 156"/>
    <path id="sc_p2" d="M600 305 L480 116"/>
    <path id="sc_p3" d="M600 305 L670 94"/>
    <path id="sc_p4" d="M600 305 L870 130"/>
    <path id="sc_p5" d="M600 305 L1030 210"/>
    <path id="sc_p6" d="M600 305 L1070 360"/>
    <path id="sc_p7" d="M600 305 L970 510"/>
    <path id="sc_p8" d="M600 305 L730 560"/>
    <path id="sc_p9" d="M600 305 L520 570"/>
    <path id="sc_p10" d="M600 305 L350 500"/>
    <path id="sc_p11" d="M600 305 L260 360"/>
    <path id="sc_p12" d="M600 305 L280 230"/>
  </defs>

  <rect width="1200" height="650" rx="28" fill="url(#sc_bg)"/>
  <rect width="1200" height="650" rx="28" fill="url(#sc_glow)"/>
  <rect width="1200" height="650" rx="28" fill="url(#sc_grid)" opacity="0.4"/>

  <g opacity="0.55" stroke="url(#sc_pathStroke)" stroke-width="1.5" fill="none">
    <use href="#sc_p1"/><use href="#sc_p2"/><use href="#sc_p3"/><use href="#sc_p4"/><use href="#sc_p5"/><use href="#sc_p6"/>
    <use href="#sc_p7"/><use href="#sc_p8"/><use href="#sc_p9"/><use href="#sc_p10"/><use href="#sc_p11"/><use href="#sc_p12"/>
    <animate attributeName="opacity" values="0.35;0.75;0.35" dur="6s" repeatCount="indefinite"/>
  </g>

  <g fill="#67e8f9" filter="url(#sc_softGlow)">
    <circle r="3"><animateMotion dur="8s" repeatCount="indefinite" path="M600 305 L310 156"/></circle>
    <circle r="3"><animateMotion dur="8.4s" repeatCount="indefinite" path="M600 305 L480 116"/></circle>
    <circle r="3"><animateMotion dur="9.1s" repeatCount="indefinite" path="M600 305 L670 94"/></circle>
    <circle r="3"><animateMotion dur="8.6s" repeatCount="indefinite" path="M600 305 L870 130"/></circle>
    <circle r="3"><animateMotion dur="9.4s" repeatCount="indefinite" path="M600 305 L1030 210"/></circle>
    <circle r="3"><animateMotion dur="9s" repeatCount="indefinite" path="M600 305 L1070 360"/></circle>
    <circle r="3"><animateMotion dur="8.8s" repeatCount="indefinite" path="M600 305 L970 510"/></circle>
    <circle r="3"><animateMotion dur="9.2s" repeatCount="indefinite" path="M600 305 L730 560"/></circle>
    <circle r="3"><animateMotion dur="8.7s" repeatCount="indefinite" path="M600 305 L520 570"/></circle>
    <circle r="3"><animateMotion dur="8.9s" repeatCount="indefinite" path="M600 305 L350 500"/></circle>
    <circle r="3"><animateMotion dur="8.5s" repeatCount="indefinite" path="M600 305 L260 360"/></circle>
    <circle r="3"><animateMotion dur="8.3s" repeatCount="indefinite" path="M600 305 L280 230"/></circle>
  </g>

  <g transform="translate(600 305)">
    <circle r="132" fill="none" stroke="#312e81" stroke-opacity="0.55" stroke-width="1.2" stroke-dasharray="5 10"/>
    <circle r="132" fill="none" stroke="#67e8f9" stroke-opacity="0.25" stroke-width="1.5" stroke-dasharray="8 12">
      <animateTransform attributeName="transform" type="rotate" values="0;360" dur="60s" repeatCount="indefinite"/>
    </circle>
    <circle r="80" fill="#060d1c" stroke="url(#sc_nodeStroke)" stroke-width="2"/>
    <circle r="66" fill="#0f172a" stroke="#60a5fa" stroke-opacity="0.5"/>
    <circle r="50" fill="#0b1222"/>
    <circle r="88" fill="none" stroke="#22d3ee" stroke-opacity="0.2" stroke-width="6" filter="url(#sc_blur)">
      <animate attributeName="r" values="84;92;84" dur="4.5s" repeatCount="indefinite"/>
    </circle>
    <text x="0" y="8" text-anchor="middle" fill="#e2f4ff" font-family="Segoe UI, Arial, sans-serif" font-size="28" font-weight="700" letter-spacing="2">BUILD</text>
    <circle cx="0" cy="0" r="104" fill="none" stroke="#d946ef" stroke-opacity="0.2" stroke-width="1.5">
      <animate attributeName="stroke-opacity" values="0.1;0.35;0.1" dur="5s" repeatCount="indefinite"/>
    </circle>
  </g>

  <g fill="#a5f3fc" opacity="0.75">
    <circle cx="600" cy="173" r="2"><animateTransform attributeName="transform" type="rotate" values="0 600 305;360 600 305" dur="14s" repeatCount="indefinite"/></circle>
    <circle cx="718" cy="305" r="2.3"><animateTransform attributeName="transform" type="rotate" values="0 600 305;-360 600 305" dur="12s" repeatCount="indefinite"/></circle>
    <circle cx="487" cy="305" r="1.8"><animateTransform attributeName="transform" type="rotate" values="0 600 305;360 600 305" dur="10s" repeatCount="indefinite"/></circle>
  </g>

  <g>
    <rect x="0" y="0" width="180" height="650" fill="url(#sc_sweep)" opacity="0.2" transform="translate(-220 0)">
      <animateTransform attributeName="transform" type="translate" values="-220 0;1240 0" dur="10s" repeatCount="indefinite"/>
    </rect>
  </g>

  <g font-family="Segoe UI, Arial, sans-serif">
    <text x="54" y="58" fill="#dbeafe" font-size="30" font-weight="700" letter-spacing="1">DEVELOPER TOOLBELT // COMMAND CENTER</text>
    <text x="54" y="84" fill="#93c5fd" font-size="14" opacity="0.9">Orbital stack constellation • self-contained build interface</text>
  </g>

  <g id="sc_nodes" font-family="Segoe UI, Arial, sans-serif">
    <g transform="translate(220 120)">
      <rect width="180" height="72" rx="16" fill="#0a1325" fill-opacity="0.78" stroke="url(#sc_nodeStroke)" stroke-opacity="0.85"/>
      <circle cx="30" cy="36" r="20" fill="#0f172a" stroke="#fb923c" stroke-opacity="0.7"/>
      <circle cx="30" cy="36" r="22" fill="#fb923c" opacity="0.15" filter="url(#sc_blur)"/>
      <use href="#sc_icon_html" x="8" y="14" width="44" height="44"/>
      <text x="62" y="31" fill="#f8fafc" font-size="16" font-weight="700">HTML</text>
      <text x="62" y="51" fill="#93c5fd" font-size="11" letter-spacing="1">FOUNDATION</text>
      <animateTransform attributeName="transform" type="translate" values="220 120;220 114;220 120" dur="6.8s" repeatCount="indefinite"/>
    </g>

    <g transform="translate(390 80)">
      <rect width="180" height="72" rx="16" fill="#0a1325" fill-opacity="0.78" stroke="url(#sc_nodeStroke)" stroke-opacity="0.85"/>
      <circle cx="30" cy="36" r="20" fill="#0f172a" stroke="#38bdf8" stroke-opacity="0.8"/>
      <circle cx="30" cy="36" r="22" fill="#38bdf8" opacity="0.16" filter="url(#sc_blur)"/>
      <use href="#sc_icon_css" x="8" y="14" width="44" height="44"/>
      <text x="62" y="31" fill="#f8fafc" font-size="16" font-weight="700">CSS</text>
      <text x="62" y="51" fill="#93c5fd" font-size="11" letter-spacing="1">FOUNDATION</text>
      <animateTransform attributeName="transform" type="translate" values="390 80;390 86;390 80" dur="6.2s" repeatCount="indefinite"/>
    </g>

    <g transform="translate(580 55)">
      <rect width="180" height="72" rx="16" fill="#0a1325" fill-opacity="0.78" stroke="url(#sc_nodeStroke)" stroke-opacity="0.85"/>
      <circle cx="30" cy="36" r="20" fill="#0f172a" stroke="#facc15" stroke-opacity="0.9"/>
      <circle cx="30" cy="36" r="22" fill="#facc15" opacity="0.14" filter="url(#sc_blur)"/>
      <use href="#sc_icon_js" x="8" y="14" width="44" height="44"/>
      <text x="62" y="31" fill="#f8fafc" font-size="16" font-weight="700">JavaScript</text>
      <text x="62" y="51" fill="#93c5fd" font-size="11" letter-spacing="1">CORE</text>
      <animateTransform attributeName="transform" type="translate" values="580 55;580 49;580 55" dur="6.4s" repeatCount="indefinite"/>
    </g>

    <g transform="translate(780 90)">
      <rect width="180" height="72" rx="16" fill="#0a1325" fill-opacity="0.78" stroke="url(#sc_nodeStroke)" stroke-opacity="0.85"/>
      <circle cx="30" cy="36" r="20" fill="#0f172a" stroke="#22d3ee" stroke-opacity="0.9"/>
      <circle cx="30" cy="36" r="22" fill="#22d3ee" opacity="0.18" filter="url(#sc_blur)"/>
      <use href="#sc_icon_react" x="8" y="14" width="44" height="44"/>
      <text x="62" y="31" fill="#f8fafc" font-size="16" font-weight="700">React</text>
      <text x="62" y="51" fill="#93c5fd" font-size="11" letter-spacing="1">UI</text>
      <animateTransform attributeName="transform" type="translate" values="780 90;780 96;780 90" dur="6.9s" repeatCount="indefinite"/>
    </g>

    <g transform="translate(940 170)">
      <rect width="180" height="72" rx="16" fill="#0a1325" fill-opacity="0.78" stroke="url(#sc_nodeStroke)" stroke-opacity="0.85"/>
      <circle cx="30" cy="36" r="20" fill="#0f172a" stroke="#fb7185" stroke-opacity="0.8"/>
      <circle cx="30" cy="36" r="22" fill="#fb7185" opacity="0.15" filter="url(#sc_blur)"/>
      <use href="#sc_icon_java" x="8" y="14" width="44" height="44"/>
      <text x="62" y="31" fill="#f8fafc" font-size="16" font-weight="700">Java</text>
      <text x="62" y="51" fill="#93c5fd" font-size="11" letter-spacing="1">CORE LANGUAGE</text>
      <animateTransform attributeName="transform" type="translate" values="940 170;940 164;940 170" dur="6.3s" repeatCount="indefinite"/>
    </g>

    <g transform="translate(980 320)">
      <rect width="180" height="72" rx="16" fill="#0a1325" fill-opacity="0.78" stroke="url(#sc_nodeStroke)" stroke-opacity="0.85"/>
      <circle cx="30" cy="36" r="20" fill="#0f172a" stroke="#4ade80" stroke-opacity="0.9"/>
      <circle cx="30" cy="36" r="22" fill="#4ade80" opacity="0.16" filter="url(#sc_blur)"/>
      <use href="#sc_icon_node" x="8" y="14" width="44" height="44"/>
      <text x="62" y="31" fill="#f8fafc" font-size="16" font-weight="700">Node.js</text>
      <text x="62" y="51" fill="#93c5fd" font-size="11" letter-spacing="1">BACKEND</text>
      <animateTransform attributeName="transform" type="translate" values="980 320;980 326;980 320" dur="6.7s" repeatCount="indefinite"/>
    </g>

    <g transform="translate(880 470)">
      <rect width="180" height="72" rx="16" fill="#0a1325" fill-opacity="0.78" stroke="url(#sc_nodeStroke)" stroke-opacity="0.85"/>
      <circle cx="30" cy="36" r="20" fill="#0f172a" stroke="#e2e8f0" stroke-opacity="0.8"/>
      <circle cx="30" cy="36" r="22" fill="#e2e8f0" opacity="0.12" filter="url(#sc_blur)"/>
      <use href="#sc_icon_express" x="8" y="14" width="44" height="44"/>
      <text x="62" y="31" fill="#f8fafc" font-size="16" font-weight="700">Express</text>
      <text x="62" y="51" fill="#93c5fd" font-size="11" letter-spacing="1">BACKEND</text>
      <animateTransform attributeName="transform" type="translate" values="880 470;880 464;880 470" dur="6.1s" repeatCount="indefinite"/>
    </g>

    <g transform="translate(640 520)">
      <rect width="180" height="72" rx="16" fill="#0a1325" fill-opacity="0.78" stroke="url(#sc_nodeStroke)" stroke-opacity="0.85"/>
      <circle cx="30" cy="36" r="20" fill="#0f172a" stroke="#22c55e" stroke-opacity="0.9"/>
      <circle cx="30" cy="36" r="22" fill="#22c55e" opacity="0.17" filter="url(#sc_blur)"/>
      <use href="#sc_icon_mongo" x="8" y="14" width="44" height="44"/>
      <text x="62" y="31" fill="#f8fafc" font-size="16" font-weight="700">MongoDB</text>
      <text x="62" y="51" fill="#93c5fd" font-size="11" letter-spacing="1">DATA</text>
      <animateTransform attributeName="transform" type="translate" values="640 520;640 526;640 520" dur="6.5s" repeatCount="indefinite"/>
    </g>

    <g transform="translate(430 530)">
      <rect width="180" height="72" rx="16" fill="#0a1325" fill-opacity="0.78" stroke="url(#sc_nodeStroke)" stroke-opacity="0.85"/>
      <circle cx="30" cy="36" r="20" fill="#0f172a" stroke="#fbbf24" stroke-opacity="0.8"/>
      <circle cx="30" cy="36" r="22" fill="#fbbf24" opacity="0.14" filter="url(#sc_blur)"/>
      <use href="#sc_icon_python" x="8" y="14" width="44" height="44"/>
      <text x="62" y="31" fill="#f8fafc" font-size="16" font-weight="700">Python</text>
      <text x="62" y="51" fill="#93c5fd" font-size="11" letter-spacing="1">LEARNING</text>
      <animateTransform attributeName="transform" type="translate" values="430 530;430 524;430 530" dur="6.6s" repeatCount="indefinite"/>
    </g>

    <g transform="translate(260 460)">
      <rect width="180" height="72" rx="16" fill="#0a1325" fill-opacity="0.78" stroke="url(#sc_nodeStroke)" stroke-opacity="0.85"/>
      <circle cx="30" cy="36" r="20" fill="#0f172a" stroke="#f97316" stroke-opacity="0.9"/>
      <circle cx="30" cy="36" r="22" fill="#f97316" opacity="0.16" filter="url(#sc_blur)"/>
      <use href="#sc_icon_git" x="8" y="14" width="44" height="44"/>
      <text x="62" y="31" fill="#f8fafc" font-size="16" font-weight="700">Git</text>
      <text x="62" y="51" fill="#93c5fd" font-size="11" letter-spacing="1">VERSION CONTROL</text>
      <animateTransform attributeName="transform" type="translate" values="260 460;260 466;260 460" dur="6.2s" repeatCount="indefinite"/>
    </g>

    <g transform="translate(170 320)">
      <rect width="180" height="72" rx="16" fill="#0a1325" fill-opacity="0.78" stroke="url(#sc_nodeStroke)" stroke-opacity="0.85"/>
      <circle cx="30" cy="36" r="20" fill="#0f172a" stroke="#f8fafc" stroke-opacity="0.85"/>
      <circle cx="30" cy="36" r="22" fill="#f8fafc" opacity="0.12" filter="url(#sc_blur)"/>
      <use href="#sc_icon_github" x="8" y="14" width="44" height="44"/>
      <text x="62" y="31" fill="#f8fafc" font-size="16" font-weight="700">GitHub</text>
      <text x="62" y="51" fill="#93c5fd" font-size="11" letter-spacing="1">COLLABORATION</text>
      <animateTransform attributeName="transform" type="translate" values="170 320;170 314;170 320" dur="6.3s" repeatCount="indefinite"/>
    </g>

    <g transform="translate(190 190)">
      <rect width="180" height="72" rx="16" fill="#0a1325" fill-opacity="0.78" stroke="url(#sc_nodeStroke)" stroke-opacity="0.85"/>
      <circle cx="30" cy="36" r="20" fill="#0f172a" stroke="#38bdf8" stroke-opacity="0.9"/>
      <circle cx="30" cy="36" r="22" fill="#38bdf8" opacity="0.16" filter="url(#sc_blur)"/>
      <use href="#sc_icon_vscode" x="8" y="14" width="44" height="44"/>
      <text x="62" y="31" fill="#f8fafc" font-size="16" font-weight="700">VS Code</text>
      <text x="62" y="51" fill="#93c5fd" font-size="11" letter-spacing="1">WORKSPACE</text>
      <animateTransform attributeName="transform" type="translate" values="190 190;190 196;190 190" dur="6.4s" repeatCount="indefinite"/>
    </g>
  </g>

  <g transform="translate(40 560)">
    <rect width="1120" height="62" rx="12" fill="#020617" fill-opacity="0.78" stroke="#38bdf8" stroke-opacity="0.25"/>
    <text x="20" y="24" fill="#7dd3fc" font-family="JetBrains Mono, Consolas, monospace" font-size="15">&gt; building with the tools I know</text>
    <text x="20" y="42" fill="#c4b5fd" font-family="JetBrains Mono, Consolas, monospace" font-size="15">&gt; learning the tools I don't</text>
    <text x="20" y="58" fill="#f0abfc" font-family="JetBrains Mono, Consolas, monospace" font-size="15">&gt; turning ideas into projects_</text>
    <rect x="308" y="46" width="9" height="14" fill="#f8fafc" opacity="1">
      <animate attributeName="opacity" values="1;0;1" dur="1.1s" repeatCount="indefinite"/>
    </rect>
  </g>

  <rect x="1" y="1" width="1198" height="648" rx="27" fill="none" stroke="#38bdf8" stroke-opacity="0.3"/>
</svg>
